<?xml version="1.0" encoding="UTF-8"?>
<svg width="24px" height="24px" viewBox="0 0 24 24" version="1.1" xmlns="http://www.w3.org/2000/svg" xmlns:xlink="http://www.w3.org/1999/xlink">
    <title>弹性容器实例ECI_ed</title>
    <g id="翼起来（公有云）" stroke="none" stroke-width="1" fill="none" fill-rule="evenodd">
        <g id="画板" transform="translate(-280.000000, -336.000000)" fill="#2983D7" fill-rule="nonzero">
            <g id="弹性容器实例ECI_ed" transform="translate(280.000000, 336.000000)">
                <path d="M8.16666667,13.5833333 C9.36328362,13.5833333 10.3333333,14.553383 10.3333333,15.75 C10.3333333,16.946617 9.36328362,17.9166667 8.16666667,17.9166667 C6.97004971,17.9166667 6,16.946617 6,15.75 C6,14.553383 6.97004971,13.5833333 8.16666667,13.5833333 Z M16.8333333,13.5833333 C18.0299503,13.5833333 19,14.553383 19,15.75 C19,16.946617 18.0299503,17.9166667 16.8333333,17.9166667 C15.6367164,17.9166667 14.6666667,16.946617 14.6666667,15.75 C14.6666667,14.553383 15.6367164,13.5833333 16.8333333,13.5833333 Z M13.5833333,15.75 L13.5833333,16.8333333 L11.4166667,16.8333333 L11.4166667,15.75 L13.5833333,15.75 Z M8.16666667,14.6666667 C7.56835819,14.6666667 7.08333333,15.1516915 7.08333333,15.75 C7.08333333,16.3483085 7.56835819,16.8333333 8.16666667,16.8333333 C8.76497515,16.8333333 9.25,16.3483085 9.25,15.75 C9.25,15.1516915 8.76497515,14.6666667 8.16666667,14.6666667 Z M16.8333333,14.6666667 C16.2350249,14.6666667 15.75,15.1516915 15.75,15.75 C15.75,16.3483085 16.2350249,16.8333333 16.8333333,16.8333333 C17.4316418,16.8333333 17.9166667,16.3483085 17.9166667,15.75 C17.9166667,15.1516915 17.4316418,14.6666667 16.8333333,14.6666667 Z M10.4059029,10.7493058 L11.3440971,11.2909725 L10.2607638,13.1673609 L9.32256957,12.6256942 L10.4059029,10.7493058 Z M14.5940971,10.7493058 L15.6774304,12.6256942 L14.7392362,13.1673609 L13.6559029,11.2909725 L14.5940971,10.7493058 Z M12.5,6 C13.696617,6 14.6666667,6.97004971 14.6666667,8.16666667 C14.6666667,9.36328362 13.696617,10.3333333 12.5,10.3333333 C11.303383,10.3333333 10.3333333,9.36328362 10.3333333,8.16666667 C10.3333333,6.97004971 11.303383,6 12.5,6 Z M12.5,7.08333333 C11.9016915,7.08333333 11.4166667,7.56835819 11.4166667,8.16666667 C11.4166667,8.76497515 11.9016915,9.25 12.5,9.25 C13.0983085,9.25 13.5833333,8.76497515 13.5833333,8.16666667 C13.5833333,7.56835819 13.0983085,7.08333333 12.5,7.08333333 Z" id="形状结合"></path>
            </g>
        </g>
    </g>
</svg>