<?xml version="1.0" encoding="UTF-8"?>
<svg width="24px" height="24px" viewBox="0 0 24 24" version="1.1" xmlns="http://www.w3.org/2000/svg" xmlns:xlink="http://www.w3.org/1999/xlink">
    <title> 弹性负载均ELB_ed</title>
    <g id="翼起来（公有云）" stroke="none" stroke-width="1" fill="none" fill-rule="evenodd">
        <g id="画板" transform="translate(-275.000000, -276.000000)" fill="#2983D7">
            <g id="-弹性负载均ELB_ed" transform="translate(275.000000, 276.000000)">
                <path d="M18.1630367,5 C18.6220131,5 19,5.39200134 19,5.86799499 L19,18.1319891 C19,18.6079987 18.6220285,19 18.1630367,19 L6.83696335,19 C6.37798693,19 6,18.6079987 6,18.132005 L6,5.86799499 C6,5.39200134 6.37798691,5 6.83696334,5 L18.1630367,5 Z M18,6 L7,6 L7,18 L18,18 L18,6 Z M10.5,7 C10.8088127,7 11.0588183,7.23908872 11.0588183,7.53445244 L11.0588183,7.53445244 L11.0588183,10.909992 C11.6176365,11.1209592 12,11.6413589 12,12.2461391 L12,12.2461391 L12,13.5822862 C12,14.1870663 11.6176366,14.707466 11.0588183,14.9184333 L11.0588183,14.9184333 L11.0588183,16.4655476 C11.0588183,16.7608953 10.8088127,17 10.5,17 C10.1911873,17 9.94118172,16.7609113 9.94118172,16.4655476 L9.94118172,16.4655476 L9.94118172,14.9043645 C9.39705685,14.6933973 9,14.1729976 9,13.5682174 L9,13.5682174 L9,12.2320703 C9,11.6272902 9.38236344,11.1068905 9.94118172,10.8959233 L9.94118172,10.8959233 L9.94118172,7.53445244 C9.94118172,7.23910472 10.1911706,7 10.5,7 Z M14.4998027,7 C14.8085748,7 15.0585475,7.23908872 15.0585475,7.53445244 L15.0585475,7.53445244 L15.0585475,8.61744206 C15.6172922,8.82840928 16.0142968,9.34879295 15.9996054,9.95358913 L15.9996054,9.95358913 L15.9996054,11.2897362 C15.9996054,11.8945164 15.6172922,12.4149161 15.0585475,12.6258833 L15.0585475,12.6258833 L15.0585475,16.4655476 C15.0585475,16.7608953 14.8085915,17 14.4998027,17 C14.1910306,17 13.9410579,16.7609113 13.9410579,16.4655476 L13.9410579,16.4655476 L13.9410579,12.6258833 C13.3970046,12.4149161 13,11.8945164 13,11.2897362 L13,11.2897362 L13,9.95358914 C13,9.34880897 13.3823131,8.82840928 13.9410579,8.61744206 L13.9410579,8.61744206 L13.9410579,7.53445244 C13.9410579,7.23910472 14.1910139,7 14.4998027,7 Z M10.4999833,11.5569624 C10.1029097,11.5569624 9.77938681,11.8663949 9.77938681,12.2461391 L9.77938681,12.2461391 L9.77938681,13.5822862 C9.77938681,13.9620464 10.1029097,14.2714628 10.4999833,14.2714628 C10.8970569,14.2714628 11.2205797,13.9620304 11.2205797,13.5822862 L11.2205797,13.5822862 L11.2205797,12.2461391 C11.2205797,11.8663789 10.8970569,11.5569624 10.4999833,11.5569624 Z M14.4998027,9.25035972 C14.2792464,9.25035972 14.0733984,9.3628777 13.9410579,9.51758593 C13.8381339,9.64417267 13.7793178,9.78481214 13.7793178,9.95358913 L13.7793178,9.95358913 L13.7793178,11.2897362 C13.7793178,11.4585132 13.8381339,11.6132214 13.9410579,11.7257394 C14.0733816,11.8945164 14.2645382,11.9929656 14.4998027,11.9929656 C14.7203589,11.9929656 14.926207,11.8804476 15.0585475,11.7257394 C15.1614715,11.5991527 15.2202876,11.4585132 15.2202876,11.2897362 L15.2202876,11.2897362 L15.2202876,9.95358913 C15.2202876,9.78481214 15.1614715,9.63010393 15.0585475,9.51758593 C14.9262237,9.34880895 14.7350672,9.25035972 14.4998027,9.25035972 Z" id="形状结合"></path>
            </g>
        </g>
    </g>
</svg>