<?xml version="1.0" encoding="UTF-8"?>
<svg width="24px" height="24px" viewBox="0 0 24 24" version="1.1" xmlns="http://www.w3.org/2000/svg" xmlns:xlink="http://www.w3.org/1999/xlink">
    <title>全局事务GTS</title>
    <g id="全局事务GTS" stroke="none" stroke-width="1" fill="none" fill-rule="evenodd">
        <path d="M14.4289778,14.393956 L14.3160889,14.3877342 C14.2316444,14.3815125 14.1489778,14.3726243 14.0698667,14.3592919 L13.9498667,14.3344049 C13.8707556,14.3166284 13.7934222,14.2952966 13.6894222,14.2606325 L13.6023111,14.2286349 C13.5276444,14.1993038 13.4556444,14.1655285 13.3552,14.1157544 C13.3285333,14.1015332 13.3000889,14.0873121 13.2725333,14.0713132 C13.2032,14.0313162 13.1374222,13.9850974 13.0325333,13.9095474 L12.9729778,13.8677728 C12.9063111,13.8144434 12.8440889,13.7540034 12.7818667,13.6926746 L12.7045333,13.6171247 C12.6218667,13.5264647 12.5427556,13.429583 12.4734222,13.3255907 C12.4156444,13.2402637 12.3649778,13.1487149 12.3178667,13.0482779 L12.5480889,13.0109473 C13.0503111,12.9353974 13.5383111,12.7451892 13.9560889,12.459877 C14.0894222,12.3718836 14.2138667,12.274113 14.3312,12.1701207 C14.3614222,12.143456 14.3889778,12.1159025 14.4165333,12.0874602 L14.4600889,12.0447967 C14.5285333,11.9772461 14.5960889,11.9096956 14.6609778,11.8368121 C14.6974222,11.7950374 14.7303111,11.7514851 14.7898667,11.6741575 C14.8432,11.6066069 14.8929778,11.5363899 14.9418667,11.4635064 C14.9809778,11.4039553 15.0174222,11.3435153 15.0529778,11.2821865 C15.0956444,11.2084142 15.1356444,11.1319754 15.1720889,11.0564254 C15.2032,10.9924302 15.2325333,10.9302126 15.2600889,10.8653285 C15.2938667,10.782668 15.3223111,10.6964521 15.3632,10.5693504 C15.3792,10.5222428 15.3960889,10.4742464 15.4094222,10.4253611 C15.4369778,10.3195911 15.4556444,10.2111547 15.4832,10.059166 C15.4894222,10.028946 15.4956444,9.9978372 15.4992,9.96761721 C15.5054222,9.91873195 15.5107556,9.8707355 15.5152,9.82096141 C16.3596444,10.2235983 16.8983111,11.0795348 16.8814222,12.0350196 C16.8609778,13.0927191 16.1658667,14.0037627 15.1507556,14.3006296 C15.0334222,14.3352937 14.9143111,14.3575143 14.7996444,14.3744019 L14.6947556,14.3815125 C14.6067556,14.3912895 14.5232,14.3957336 14.4289778,14.393956 L14.4289778,14.393956 Z M10.6805333,12.4660988 C10.7649778,12.4092141 10.8547556,12.3567736 10.9516444,12.309666 L10.9889778,12.5416488 C11.0645333,13.0438338 11.2556444,13.5317976 11.5400889,13.9504333 C12.1427556,14.856144 13.1187556,15.4249907 14.1916444,15.5112066 C13.7729778,16.4169173 12.8245333,16.9697652 11.8165333,16.8933264 L11.8165333,16.8933264 C10.7036444,16.8026665 9.80675556,15.9680616 9.63164444,14.8463669 C9.61297778,14.7219317 9.6031766,14.5974965 9.6031766,14.4712836 C9.59964444,13.6624546 10.0014222,12.9131768 10.6805333,12.4660988 L10.6805333,12.4660988 Z M10.6920889,9.90273313 C10.8556444,9.99428191 11.0040889,10.1000518 11.1596444,10.2422635 C11.3054222,10.3791423 11.4307556,10.5266869 11.5338667,10.6857862 C11.5880889,10.7640027 11.6369778,10.8502185 11.6840889,10.9471002 L11.4574222,10.983542 C10.9560889,11.0608696 10.4698667,11.2510777 10.0547556,11.5337234 C9.14631111,12.133679 8.57653333,13.1069402 8.48942222,14.1868602 C7.58275556,13.7673358 7.02453333,12.8287386 7.1072,11.8110362 C7.19786667,10.6911192 8.03697778,9.7934079 9.14808889,9.62630916 C9.27075556,9.60764388 9.39608889,9.59786682 9.53208889,9.59786682 L9.53297778,9.59786682 C9.71253333,9.59786682 9.8992,9.62097622 10.1320889,9.67519443 C10.2974222,9.71874676 10.4645333,9.78363084 10.6307556,9.86984668 L10.6920889,9.90273313 Z M13.3303111,11.5275017 C13.2485333,11.5826087 13.1596444,11.6323828 13.0547556,11.6812681 L13.0165333,11.4457299 C12.9418667,10.9444337 12.7507556,10.4573587 12.4663111,10.0405007 C12.4449778,10.0085031 12.4209778,9.98006074 12.3640889,9.91251018 C12.2965333,9.81918376 12.2254222,9.72941264 12.1507556,9.64497445 C12.1018667,9.59075624 12.0512,9.54009333 12.0005333,9.48943041 C11.9205333,9.41121398 11.8369778,9.33744167 11.7169778,9.23878231 C11.6814222,9.20945115 11.6449778,9.17923117 11.6076444,9.15256648 C11.4716444,9.05301829 11.3303111,8.96146952 11.1836444,8.88414192 L11.1089778,8.84858899 C10.9774222,8.78370491 10.8423111,8.72593141 10.7045333,8.67793497 C10.6618667,8.66282498 10.6192,8.64949263 10.5507556,8.6290497 C10.4307556,8.59260795 10.3089778,8.56238797 10.1472,8.53216799 C10.1089778,8.52416858 10.0698667,8.517058 10.0316444,8.51083623 C9.95608889,8.50017036 9.88408889,8.49217095 9.81297778,8.48594919 C10.2325333,7.57846085 11.1720889,7.0211688 12.1898667,7.10116288 C13.3089778,7.19182283 14.2076444,8.03087179 14.3738667,9.14278942 C14.3934222,9.26722465 14.4032234,9.39343752 14.4032234,9.52053922 C14.4067556,10.3293682 14.0049778,11.0795348 13.3303111,11.5275017 L13.3303111,11.5275017 Z M15.3880889,8.59616325 C14.9667556,7.06027702 13.5934222,5.99991112 11.9978667,5.99991112 L11.9898667,5.99991112 C10.3943111,6.00346641 9.02186667,7.06649878 8.60408889,8.60327383 C8.51875556,8.62371676 8.43253333,8.64593734 8.34808889,8.67615732 C6.82275556,9.21833938 5.86364444,10.722228 6.01564444,12.3336642 C6.15431111,13.8019999 7.19164444,15.0179098 8.61475556,15.3992149 C9.02808889,16.940434 10.3952,17.9999111 11.9889778,17.9999111 C12.0005333,17.9999111 12.0129778,18.0007999 12.0254222,17.9999111 C13.6298667,17.9999111 15.0005333,16.930657 15.4067556,15.3823272 C16.9436444,14.9601363 18.0032,13.5815717 18.0005384,11.9843567 C17.9969778,10.385364 16.9294222,9.01124361 15.3880889,8.59616325 L15.3880889,8.59616325 Z" id="Fill-1" fill="#2983D7"></path>
    </g>
</svg>