<?xml version="1.0" encoding="UTF-8"?>
<svg width="40px" height="40px" viewBox="0 0 40 40" version="1.1" xmlns="http://www.w3.org/2000/svg" xmlns:xlink="http://www.w3.org/1999/xlink">
    <title>高可用数据库</title>
    <g id="翼起来（公有云）" stroke="none" stroke-width="1" fill="none" fill-rule="evenodd">
        <g id="2.1总览" transform="translate(-374.000000, -752.000000)">
            <g id="高可用数据库" transform="translate(374.000000, 752.000000)">
                <circle id="椭圆形" fill="#FEF5D9" cx="20" cy="20" r="20"></circle>
                <path d="M10.1908081,23.0234418 C10.3067351,22.9773034 10.4409425,23.0004842 10.5315796,23.082301 C11.8736848,24.243451 15.6052637,25.0798727 20,25.0798727 C24.394737,25.0798727 28.1263159,24.243451 29.4684211,23.082301 C29.6736842,22.9051764 30,23.0330997 30,23.2938664 L30,23.2938664 L30,27.0479236 C30,28.6764857 25.5210528,30 20,30 C14.4789479,30 10,28.6764857 10,27.0479236 L10,27.0479236 L10,23.2938664 C9.99973458,23.1760825 10.074881,23.0695801 10.1908081,23.0234418 Z M10.1908081,16.0234418 C10.3067351,15.9773034 10.4409425,16.0004842 10.5315796,16.082301 C11.8736848,17.243451 15.6052637,18.0798727 20,18.0798727 C24.394737,18.0798727 28.1263159,17.243451 29.4684211,16.082301 C29.6736842,15.9051764 30,16.0330997 30,16.2938665 L30,16.2938665 L30,20.0479236 C30,21.6764857 25.5210528,23 20,23 C14.4789479,23 10,21.6764857 10,20.0479236 L10,20.0479236 L10,16.2938665 C9.99973457,16.1760825 10.074881,16.0695801 10.1908081,16.0234418 Z M20,10 C25.5228475,10 30,11.3431457 30,13 C30,14.0717968 28.0940108,15.0621778 25,15.5980762 C21.9059893,16.1339746 18.0940107,16.1339746 15,15.5980762 C11.9059892,15.0621778 10,14.0717968 10,13 C10,11.3431457 14.4771525,10 20,10 Z" id="形状结合" fill="#FFBC37" fill-rule="nonzero"></path>
            </g>
        </g>
    </g>
</svg>