<?xml version="1.0" encoding="UTF-8"?>
<svg width="40px" height="40px" viewBox="0 0 40 40" version="1.1" xmlns="http://www.w3.org/2000/svg" xmlns:xlink="http://www.w3.org/1999/xlink">
    <title>分布式消息中间件</title>
    <g id="翼起来（公有云）" stroke="none" stroke-width="1" fill="none" fill-rule="evenodd">
        <g id="2.1总览" transform="translate(-374.000000, -862.000000)">
            <g id="分布式消息中间件" transform="translate(374.000000, 862.000000)">
                <circle id="椭圆形备份-5" fill="#F3EFFF" cx="20" cy="20" r="20"></circle>
                <path d="M26.7125882,21.4906708 C27.0938251,21.4906708 27.4041984,21.6058906 27.6422217,21.836283 C27.8807561,22.0666754 28,22.3752037 28,22.763427 L28,26.6907268 C28,27.114971 27.883729,27.4392305 27.6511871,27.6630328 C27.4186452,27.8873312 27.1117558,28 26.7305189,28 L14.3946942,28 C14.0009848,28 13.6706368,27.8665453 13.402187,27.5996123 C13.1342249,27.333199 13,27.0058689 13,26.6176692 L13,22.8359885 C13,22.4117443 13.116271,22.0818869 13.3488129,21.8454004 C13.5813548,21.608914 13.9002058,21.4906708 14.3054122,21.4906708 L26.7125882,21.4906708 L26.7125882,21.4906708 Z M26.7125882,13 C27.0938251,13 27.4041984,13.1121728 27.6422217,13.3364712 C27.8807561,13.5605097 28,13.8728645 28,14.2727562 L28,18.1815141 C28,18.6057583 27.883729,18.9305374 27.6511871,19.1548358 C27.4186452,19.3786381 27.1117558,19.4907873 26.7305189,19.4907873 L14.3946942,19.4907873 C14.0009848,19.4907873 13.6706368,19.3573326 13.402187,19.0908956 C13.1342249,18.8239626 13,18.4971522 13,18.1089526 L13,14.3453177 C13,13.9213334 13.116271,13.5909563 13.3488129,13.3547296 C13.5813548,13.1182432 13.9002058,13 14.3054122,13 L26.7125882,13 L26.7125882,13 Z" id="形状" fill="#896AE4" fill-rule="nonzero"></path>
            </g>
        </g>
    </g>
</svg>