<?xml version="1.0" encoding="UTF-8"?>
<svg width="24px" height="24px" viewBox="0 0 24 24" version="1.1" xmlns="http://www.w3.org/2000/svg" xmlns:xlink="http://www.w3.org/1999/xlink">
    <title>分布式消息服务MQTT__ed</title>
    <g id="翼起来（公有云）" stroke="none" stroke-width="1" fill="none" fill-rule="evenodd">
        <g id="画板" transform="translate(-383.000000, -276.000000)" fill="#2983D7" fill-rule="nonzero">
            <g id="分布式消息服务MQTT__ed" transform="translate(383.000000, 276.000000)">
                <path d="M16.9355804,6 C18.0197866,6 18.915155,6.77001052 18.9943121,7.75378796 L19,7.89572172 L19,15.1892741 C19,16.1848824 18.1539137,17.0070841 17.0891146,17.0797727 L16.9355804,17.0849958 L9.71429735,17.0849958 C9.38027544,17.0849958 9.05237409,17.1912614 8.78799358,17.3798463 L8.66136247,17.4808879 L7.21873536,18.805628 C6.78956637,19.1925619 6.08867308,18.9657863 6.00770006,18.4426969 L6,18.3412227 L6,7.89575913 C6,6.90015083 6.84608631,6.07791504 7.91088539,6.00522337 L8.06441964,6 L16.9355804,6 Z M16.9355804,7 L8.06441964,7 C7.50572442,7 7.06681563,7.36640677 7.00696486,7.79571064 L7,7.89575913 L7,17.648 L7.99597582,16.734389 C8.41101671,16.3644451 8.94606991,16.1390785 9.5041341,16.0935642 L9.71429735,16.0849958 L16.9355804,16.0849958 C17.4942878,16.0849958 17.9331861,15.7186095 17.9930353,15.2893195 L18,15.1892741 L18,7.89572172 C18,7.45454614 17.6039612,7.06036515 17.0629006,7.00630448 L16.9355804,7 Z M10.592,8.288 L12.584,12.864 L12.608,12.864 L14.592,8.288 L15.624,8.288 L15.624,14 L14.752,14 L14.752,9.92 L14.72,9.92 L12.968,14 L12.216,14 L10.464,9.92 L10.432,9.92 L10.432,14 L9.56,14 L9.56,8.288 L10.592,8.288 Z" id="形状结合"></path>
            </g>
        </g>
    </g>
</svg>