<?xml version="1.0" encoding="UTF-8"?>
<svg width="24px" height="24px" viewBox="0 0 24 24" version="1.1" xmlns="http://www.w3.org/2000/svg" xmlns:xlink="http://www.w3.org/1999/xlink">
    <title>mse__ed</title>
    <g id="翼起来（公有云）" stroke="none" stroke-width="1" fill="none" fill-rule="evenodd">
        <g id="画板" transform="translate(-347.000000, -182.000000)">
            <g id="mse__ed" transform="translate(347.000000, 182.000000)">
                <rect id="矩形" x="0" y="0" width="24" height="24"></rect>
                <g id="MS" transform="translate(5.097428, 5.076231)" fill="#2983D7" fill-rule="nonzero">
                    <g id="编组-2">
                        <path d="M7.62078991,8.12376854 L7.71344265,8.18614582 L8.90457234,11.1207685 L10.0916481,8.18627885 L10.1843548,8.12376854 L10.9025723,8.12376854 L11.0025723,8.22376854 L11.0025723,12.2237685 L10.9025723,12.3237685 L10.2892041,12.3237685 L10.1892041,12.2237685 L10.1885723,9.93476854 L9.26018306,12.260861 L9.16731677,12.3237685 L8.63782791,12.3237685 L8.54496163,12.260861 L7.61557234,9.93476854 L7.61594063,12.2237685 L7.51594063,12.3237685 L6.90257234,12.3237685 L6.80257234,12.2237685 L6.80257234,8.22376854 L6.90257234,8.12376854 L7.62078991,8.12376854 Z M12.7201132,8.12376854 C13.1246212,8.12376854 13.4447606,8.22411622 13.6752383,8.42917357 C13.8574316,8.59025259 13.9818478,8.81578923 14.0483742,9.10310283 L14.0768128,9.25189531 L14.0964135,9.4254865 L13.997045,9.53670655 L13.4736383,9.53670655 L13.3754,9.45539415 C13.3346372,9.24110915 13.2594937,9.08703203 13.1578043,8.99820571 C13.0644714,8.91242968 12.9106947,8.86824294 12.6930405,8.86824294 C12.5050457,8.86824294 12.3709086,8.89748736 12.2795751,8.95651748 C12.1786474,9.01680885 12.1297579,9.11650934 12.1297579,9.26959064 C12.1297579,9.39999701 12.1870093,9.50156179 12.3091018,9.57878733 L12.3921921,9.6224242 L12.5324881,9.68430714 L12.7255606,9.76223011 L12.840504,9.80651723 C13.265784,9.9636618 13.5640807,10.0982019 13.7076653,10.1962538 C14.0144878,10.4150159 14.169239,10.7206775 14.169239,11.1078656 C14.169239,11.4811239 14.0446463,11.7833024 13.7960429,12.003083 C13.5485692,12.2159638 13.2034907,12.3237685 12.7742588,12.3237685 C12.3549977,12.3237685 12.0214926,12.2252419 11.7806071,12.0255452 C11.5586464,11.8399148 11.4137424,11.5772127 11.345189,11.2378483 L11.3172716,11.0617794 L11.302898,10.884124 L11.4025723,10.7760596 L11.925979,10.7760596 L12.025219,10.8637539 C12.0589512,11.135788 12.1365674,11.3224553 12.2525967,11.42533 C12.3612917,11.5180891 12.5351334,11.5685125 12.7742588,11.5685125 C12.9887754,11.5685125 13.1596443,11.5254699 13.2755009,11.447076 C13.3886145,11.3659909 13.4413202,11.2705205 13.4413202,11.1456014 C13.4413202,10.9795547 13.3591718,10.8486929 13.1877242,10.7462749 L13.1522381,10.727632 L13.0258475,10.6722242 L12.4301747,10.4443239 L12.0805721,10.3011337 L11.9193311,10.2256149 L11.8135719,10.1648816 C11.5390742,9.96810889 11.4018391,9.6792973 11.4018391,9.30732649 C11.4018391,8.9350678 11.5343405,8.63787211 11.7986556,8.42738269 C12.0422729,8.22364052 12.3487798,8.12376854 12.7201132,8.12376854 Z" id="形状结合"></path>
                        <path d="M6.69104708,0.046946963 C6.80048328,-0.00414753603 6.92370109,-0.0134960097 7.03807785,0.0187072138 L7.12184923,0.0506475384 L13.247637,3.03993495 C13.597914,3.2108646 13.6191369,3.68675614 13.3183586,3.89717908 L13.2364598,3.94392411 L7.11067203,6.74786527 C7.00417378,6.79661244 6.88486392,6.80605879 6.77343527,6.77626831 L6.69166485,6.74656954 L0.999572344,4.09776854 L0.999572344,10.9947685 L6.90857234,13.7637685 L8.23106576,13.1873066 C8.4560223,13.0890971 8.71388668,13.1695171 8.84601029,13.3663442 L8.88935268,13.4454894 C8.98756222,13.6704459 8.90714216,13.9283103 8.71031514,14.0604339 L8.63116996,14.1037763 L7.10262444,14.7710951 C6.99718743,14.8171259 6.8799787,14.825055 6.77063944,14.7951435 L6.69041742,14.7656188 L0.287845077,11.7654827 C0.137287594,11.694934 0.0333506376,11.5552014 0.00672696597,11.3945624 L0,11.3127241 L0,3.48928742 C0,3.32280511 0.0826400799,3.16923468 0.217080571,3.07701021 L0.288474741,3.03623437 L6.69104708,0.046946963 Z M6.89757234,1.05376854 L1.86957234,3.40076854 L6.90257234,5.74176854 L11.8575723,3.47376854 L6.89757234,1.05376854 Z" id="路径-6"></path>
                    </g>
                </g>
                <g id="编组" transform="translate(5.000000, 5.000000)"></g>
            </g>
        </g>
    </g>
</svg>