<?xml version="1.0" encoding="UTF-8"?>
<svg width="24px" height="24px" viewBox="0 0 24 24" version="1.1" xmlns="http://www.w3.org/2000/svg" xmlns:xlink="http://www.w3.org/1999/xlink">
    <title>微服务云原生网关_ed</title>
    <g id="翼起来（公有云）" stroke="none" stroke-width="1" fill="none" fill-rule="evenodd">
        <g id="画板" transform="translate(-345.000000, -232.000000)" fill="#2983D7">
            <g id="微服务云原生网关_ed" transform="translate(345.000000, 232.000000)">
                <path d="M16.8280495,6 C17.357549,6 17.8042442,6.36551399 17.8992196,6.83418626 L17.9147711,6.94405319 L18.9955218,13.8647041 L19,13.9363982 L18.9527296,17.1829754 L18.9363094,17.2368663 C18.8122453,17.6510323 18.4419156,17.9471383 18.0062216,17.9936131 L17.8859113,18 L6.12205004,18 C5.66938926,18 5.26820854,17.7311103 5.10511347,17.3312573 L5.06667614,17.219063 L5.05274382,17.1690215 L5,13.7862736 L5.00497583,13.7126547 L6.08174581,6.97196098 C6.1245882,6.4620617 6.53664622,6.06104983 7.05144764,6.00636395 L7.17195053,6 L16.8280495,6 Z M18,13.973 L18,14 L6.003,14 L6.049,16.976 L6.07731425,16.9923039 L6.12205004,17 L17.8859113,17 L17.9303104,16.9922019 L17.955,16.976 L18.0019451,13.99874 L18.0074966,14.0189972 L18,13.973 Z M16.6305542,15 C16.8373814,15.0127338 17,15.2328183 17,15.5 C17,15.7671817 16.8373814,15.9872662 16.6305542,16 L16.6305542,16 L15.4685139,16 C15.2616868,15.9872662 15.0990681,15.7671817 15.0990681,15.5 C15.0990681,15.2328183 15.2616868,15.0127338 15.4685139,15 L15.4685139,15 Z M14.1125063,15 C14.3193334,15.0127338 14.481952,15.2328183 14.481952,15.5 C14.481952,15.7671817 14.3193334,15.9872662 14.1125063,16 L14.1125063,16 L13.9189798,16 C13.7121527,15.9872662 13.5495341,15.7671817 13.5495341,15.5 C13.5495341,15.2328183 13.7121527,15.0127338 13.9189798,15 L13.9189798,15 Z M12.5629722,15 C12.7697993,15.0127338 12.932418,15.2328183 12.932418,15.5 C12.932418,15.7671817 12.7697993,15.9872662 12.5629722,16 L12.5629722,16 L12.3694458,16 C12.1626186,15.9872662 12,15.7671817 12,15.5 C12,15.2328183 12.1626186,15.0127338 12.3694458,15 L12.3694458,15 Z M16.8280495,7 L7.17195053,7 C7.12676213,7 7.09520462,7.02007654 7.07873073,7.07845375 L6.127,13 L17.848,13 L16.9180607,7.02509897 L16.8654912,7.00473318 L16.8280495,7 Z" id="形状结合"></path>
            </g>
        </g>
    </g>
</svg>