<?xml version="1.0" encoding="UTF-8"?>
<svg width="24px" height="24px" viewBox="0 0 24 24" version="1.1" xmlns="http://www.w3.org/2000/svg" xmlns:xlink="http://www.w3.org/1999/xlink">
    <title>微服务治理中心_ed</title>
    <g id="翼起来（公有云）" stroke="none" stroke-width="1" fill="none" fill-rule="evenodd">
        <g id="画板" transform="translate(-309.000000, -232.000000)" fill="#2983D7">
            <g id="微服务治理中心_ed" transform="translate(309.000000, 232.000000)">
                <path d="M6.34839478,5.12507445 C6.54815696,4.95830852 6.84780024,4.95830852 7.01426873,5.12507445 L7.01426873,5.12507445 L7.94649226,6.05896366 C8.34601664,6.45920189 8.44589774,7.02620606 8.24613555,7.52650387 L8.24613555,7.52650387 L11.0428062,10.3281715 C11.1501719,10.4357291 11.199832,10.5818258 11.1969557,10.7198562 L11.9466058,10.0344653 C11.5053426,8.78340332 11.8033492,7.41018393 12.7284566,6.45922696 C13.2864351,5.88565725 13.9986202,5.53940077 14.7823527,5.46267393 C15.2322844,5.41862595 15.5050119,5.94686461 15.208555,6.28817397 C14.5826781,7.00874309 14.6132429,8.11625789 15.2911072,8.81319061 C15.9151075,9.47929746 16.9638763,9.49469852 17.664292,8.85185319 C18.0021778,8.54173973 18.5444391,8.81216311 18.5000329,9.26863353 C18.4243094,10.047028 18.0821983,10.8006073 17.529042,11.3690708 C16.6599955,12.2266671 15.4466967,12.5658632 14.3822277,12.2783049 L14.4054697,12.2960095 L14.4054697,12.2960095 L18.5671819,16.4651578 C18.8335315,16.7319833 19,17.1322215 19,17.5324598 C19,17.932698 18.8335315,18.2995831 18.5671819,18.5997617 C18.2675386,18.833234 17.901308,19 17.5017836,19 C17.1022592,19 16.7360285,18.8332341 16.4363853,18.5664086 L12.274673,14.3972603 C12.2024698,14.324928 12.1563641,14.2395237 12.136356,14.1504971 L8.43456418,17.9794798 C8.08594735,18.3378377 7.67159882,18.5220221 7.18820578,18.5220221 C6.70893642,18.5220221 6.26118471,18.3403394 5.94184735,18.012079 C5.62516625,17.6865491 5.45139382,17.2340248 5.45139382,16.7506509 C5.45139382,16.247229 5.63936653,15.7883195 5.99480147,15.4686426 L5.99480147,15.4686426 L10.711,11.162 C10.6033294,11.1620012 10.4967895,11.1406551 10.4072961,11.0808862 L10.3436385,11.0285884 L7.54696789,8.22692078 C7.3804994,8.29362714 7.18073722,8.32698033 7.01426873,8.32698033 C6.68133175,8.32698033 6.34839478,8.19356759 6.08204518,7.96009529 L6.08204518,7.96009529 L5.14982165,7.02620606 C4.95005945,6.82608695 4.95005945,6.52590828 5.14982165,6.32578915 L5.14982165,6.32578915 Z M13.5579112,12.682863 L12.7126744,13.5551807 C12.8068728,13.5732718 12.8976262,13.6204927 12.9738407,13.6968433 L17.1355529,17.8659916 C17.3353151,18.0661108 17.6682521,18.0661108 17.8347206,17.8659916 C17.9346017,17.7659321 17.9678954,17.6325193 17.9678954,17.4991066 C17.9678954,17.3656939 17.901308,17.2322811 17.8347206,17.1322215 L13.706302,12.9964264 C13.6161817,12.9061451 13.5667181,12.7954991 13.5579112,12.682863 Z M13.839,6.829 L13.7222293,6.91109967 C13.6253401,6.98458595 13.5328446,7.06647037 13.4452383,7.1565246 C12.7859453,7.83423969 12.5746811,8.80774866 12.8964904,9.71797643 C13.0158339,10.0860109 12.9126469,10.4749351 12.6311691,10.7630235 L12.6311691,10.7630235 L6.66632061,16.2096203 C6.52769717,16.3343051 6.45139382,16.5205893 6.45139382,16.7506509 C6.45139382,16.9801141 6.52856874,17.1810869 6.65862906,17.3147814 C6.78603314,17.4457454 6.97401474,17.5220221 7.18820578,17.5220221 C7.39457325,17.5220221 7.55294869,17.4516218 7.71680225,17.2831926 L7.71680225,17.2831926 L13.331006,11.4795134 C13.5779638,11.2256551 13.9266448,11.1441951 14.3718746,11.2294156 C15.2133483,11.5439561 16.1543346,11.3207378 16.81945,10.6645318 C16.9051404,10.5764471 16.9839199,10.4812143 17.0552212,10.3802674 L17.0552212,10.3802674 L17.148,10.237 L17.0969467,10.251193 C16.2572275,10.4499239 15.3547908,10.2443057 14.6961951,9.63163402 L14.6961951,9.63163402 L14.567818,9.5036715 C13.8934857,8.81049689 13.639032,7.84819401 13.8117108,6.95395747 L13.8117108,6.95395747 L13.839,6.829 Z M6.68133175,6.19237641 L6.21521997,6.65932102 L6.78121285,7.22632519 C6.91438762,7.35973793 7.14744352,7.35973793 7.24732461,7.22632519 C7.3804994,7.09291244 7.3804994,6.89279332 7.24732461,6.75938057 L7.24732461,6.75938057 L6.68133175,6.19237641 Z" id="形状结合"></path>
            </g>
        </g>
    </g>
</svg>