<?xml version="1.0" encoding="UTF-8"?>
<svg width="24px" height="24px" viewBox="0 0 24 24" version="1.1" xmlns="http://www.w3.org/2000/svg" xmlns:xlink="http://www.w3.org/1999/xlink">
    <title>分布式消息服务RabbitMQ__ed</title>
    <g id="翼起来（公有云）" stroke="none" stroke-width="1" fill="none" fill-rule="evenodd">
        <g id="画板" transform="translate(-347.000000, -276.000000)" fill="#2983D7" fill-rule="nonzero">
            <g id="分布式消息服务RabbitMQ__ed" transform="translate(347.000000, 276.000000)">
                <path d="M16.9355804,6 C18.0197866,6 18.915155,6.77001052 18.9943121,7.75378796 L19,7.89572172 L19,15.1892741 C19,16.1848824 18.1539137,17.0070841 17.0891146,17.0797727 L16.9355804,17.0849958 L9.71429735,17.0849958 C9.38027544,17.0849958 9.05237409,17.1912614 8.78799358,17.3798463 L8.66136247,17.4808879 L7.21873536,18.805628 C6.78956637,19.1925619 6.08867308,18.9657863 6.00770006,18.4426969 L6,18.3412227 L6,7.89575913 C6,6.90015083 6.84608631,6.07791504 7.91088539,6.00522337 L8.06441964,6 L16.9355804,6 Z M16.9355804,7 L8.06441964,7 C7.50572442,7 7.06681563,7.36640677 7.00696486,7.79571064 L7,7.89575913 L7,17.648 L7.99597582,16.734389 C8.41101671,16.3644451 8.94606991,16.1390785 9.5041341,16.0935642 L9.71429735,16.0849958 L16.9355804,16.0849958 C17.4942878,16.0849958 17.9331861,15.7186095 17.9930353,15.2893195 L18,15.1892741 L18,7.89572172 C18,7.45454614 17.6039612,7.06036515 17.0629006,7.00630448 L16.9355804,7 Z M13.088,9.288 C13.664,9.288 14.128,9.416 14.464,9.68 C14.816,9.968 14.992,10.376 14.992,10.92 C14.992,11.224 14.912,11.488 14.752,11.72 C14.568,11.976 14.32,12.144 14.008,12.224 L14.008,12.224 L14.008,12.24 C14.52,12.352 14.8,12.688 14.864,13.248 L14.864,13.248 L14.96,14.16 C14.992,14.512 15.104,14.792 15.296,15 L15.296,15 L14.352,15 C14.216,14.824 14.136,14.568 14.104,14.248 L14.104,14.248 L14.032,13.536 C14,13.216 13.896,12.992 13.728,12.848 C13.552,12.704 13.304,12.64 12.976,12.64 L12.976,12.64 L11.432,12.64 L11.432,15 L10.56,15 L10.56,9.288 Z M12.968,10.032 L11.432,10.032 L11.432,11.896 L12.976,11.896 C13.36,11.896 13.648,11.808 13.84,11.648 C14.024,11.488 14.12,11.256 14.12,10.952 C14.12,10.632 14.024,10.4 13.848,10.256 C13.656,10.104 13.368,10.032 12.968,10.032 L12.968,10.032 Z" id="形状结合"></path>
            </g>
        </g>
    </g>
</svg>