<?xml version="1.0" encoding="UTF-8"?>
<svg width="40px" height="40px" viewBox="0 0 40 40" version="1.1" xmlns="http://www.w3.org/2000/svg" xmlns:xlink="http://www.w3.org/1999/xlink">
    <title>分布式缓存</title>
    <g id="翼起来（公有云）" stroke="none" stroke-width="1" fill="none" fill-rule="evenodd">
        <g id="2.1总览" transform="translate(-750.000000, -752.000000)">
            <g id="分布式缓存" transform="translate(750.000000, 752.000000)">
                <circle id="椭圆形备份-4" fill="#DDFAF8" cx="20" cy="20" r="20"></circle>
                <path d="M29.0289434,18.9603915 C28.6111498,18.8911529 28.3326208,18.5449595 28.3326208,18.1295274 C28.3326208,15.0830255 26.3829174,12.2442397 23.4583624,11.3441369 C19.4196911,10.0978406 15.5899167,12.382717 14.4061682,15.844651 C14.3365359,16.1216057 14.0580069,16.3293217 13.7794778,16.3985604 C10.5067615,17.0217085 8,19.929733 8,23.391667 L8,23.4609057 C8,26.5766462 10.646026,29 13.7098456,29 L27.9844595,29 C30.76975,28.9307613 32.9979824,26.7151236 32.9979824,23.9455764 C33.0676146,21.5222227 31.3268081,19.5143009 29.0289434,18.9603915 Z M24.8510076,21.7991774 L21.5782913,25.0533953 C21.2301299,25.3995887 20.7427041,25.4688273 20.3249105,25.33035 L20.2552783,25.33035 C20.1160138,25.2611113 19.9767492,25.1918727 19.8374847,25.0533953 L16.5647684,21.7991774 C16.1469748,21.3837453 16.1469748,20.6221199 16.5647684,20.2066878 C16.9825619,19.7912557 17.7485168,19.7912557 18.1663104,20.2066878 L19.5589556,21.5914614 L19.5589556,17.9218114 C19.5589556,17.2986632 20.0463815,16.8139925 20.6730718,16.8139925 C21.2997622,16.8139925 21.7871881,17.2986633 21.7871881,17.9218114 L21.7871881,21.5914614 L23.1798333,20.2066878 C23.6672592,19.722017 24.3635818,19.722017 24.8510076,20.2066878 C25.3384335,20.6221198 25.3384335,21.3145066 24.8510076,21.7991774 L24.8510076,21.7991774 Z" id="形状" fill="#17DBCC" fill-rule="nonzero"></path>
            </g>
        </g>
    </g>
</svg>