<?xml version="1.0" encoding="UTF-8"?>
<svg width="24px" height="24px" viewBox="0 0 24 24" version="1.1" xmlns="http://www.w3.org/2000/svg" xmlns:xlink="http://www.w3.org/1999/xlink">
    <title>流量录制与回放_ed</title>
    <g id="翼起来（公有云）" stroke="none" stroke-width="1" fill="none" fill-rule="evenodd">
        <g id="画板" transform="translate(-351.000000, -309.000000)" fill="#2983D7" fill-rule="nonzero">
            <g id="流量录制与回放_ed" transform="translate(351.000000, 309.000000)">
                <path d="M12,5 C15.8659932,5 19,8.13400675 19,12 L18.9993756,12.0821013 C18.9999765,12.0861764 19.000528,12.0902664 19.0010293,12.0943707 L19.0038605,12.1845622 L18.995,12.239 C18.8690987,15.9952166 15.7854517,19 12,19 C8.13400675,19 5,15.8659932 5,12 C5,8.13400675 8.13400675,5 12,5 Z M12,18 C15.1024272,18 17.6548947,15.6453426 17.9677719,12.6256583 L15.7969642,12.4991589 C15.6509113,12.4906766 15.5174822,12.4188797 15.4298942,12.3051998 L15.383108,12.2321374 L14.806,11.132 L13.4787019,15.3514513 C13.3399853,15.7922708 12.7461168,15.8148128 12.5557385,15.4291321 L12.5214319,15.3402416 L11.092,10.399 L9.98291254,14.2286621 C9.87622893,14.5968236 9.42218269,14.7037925 9.16020876,14.4544092 L9.09902895,14.3845843 L7.721,12.5 L6.02061151,12.5009037 C6.27511705,15.5802387 8.85497576,18 12,18 Z M12,6 C8.85463498,6 6.27455798,8.42028573 6.02052886,11.5000973 L7.97512274,11.5 C8.10274892,11.5 8.22424602,11.548722 8.31594523,11.63415 L8.37876272,11.7049157 L9.305,12.972 L10.6130179,8.46125698 C10.7431794,8.01207418 11.3459035,7.98230659 11.5388389,8.37168992 L11.5735884,8.46154468 L13.022,13.47 L14.2137354,9.68416594 C14.3377417,9.29009378 14.8464314,9.2173563 15.0838494,9.52447052 L15.1335242,9.6021126 L16.137,11.516 L17.9884055,11.6239269 C17.7943039,8.48540979 15.1874012,6 12,6 Z" id="形状结合"></path>
            </g>
        </g>
    </g>
</svg>