<?xml version="1.0" encoding="UTF-8"?>
<svg width="24px" height="24px" viewBox="0 0 24 24" version="1.1" xmlns="http://www.w3.org/2000/svg" xmlns:xlink="http://www.w3.org/1999/xlink">
    <title>分布式消息服务_ed</title>
    <g id="翼起来（公有云）" stroke="none" stroke-width="1" fill="none" fill-rule="evenodd">
        <g id="画板" transform="translate(-275.000000, -232.000000)" fill="#2983D7">
            <g id="分布式消息服务_ed" transform="translate(275.000000, 232.000000)">
                <path d="M16.8220815,5 C18.0242929,5.00152573 18.998505,5.99577834 19,7.22272038 L19,16.7782027 C18.997508,18.0052934 18.0226318,18.9989851 16.8202726,19 L7.17791847,19 C5.9757071,18.9984743 5.00149498,18.0042217 5,16.7772796 L5,7.22272038 C5.00149498,5.99577834 5.9757071,5.00152573 7.17791847,5 L16.8220815,5 Z M16.8220815,6.02274676 L7.17791847,6.02551593 C6.52854949,6.02551594 6.00213193,6.56276242 6.00213193,7.22548955 L6.00213193,16.7809718 C6.00213193,17.443699 6.52854949,17.9809455 7.17791847,17.9809455 L16.8220815,17.9809455 C17.4714505,17.9809455 17.9978681,17.443699 17.9978681,16.7809718 L17.9978681,7.22272038 C17.9978681,6.55999325 17.4714505,6.02274676 16.8220815,6.02274676 Z M15.8646165,10.1774965 C16.0430356,10.3991037 16.0453905,10.7488036 15.8699789,10.9738162 L13.1102044,14.1418584 C12.7307589,14.5752313 12.1354281,14.5834224 11.74774,14.1606042 L10.0734071,12.3276804 C10.0629499,12.3156452 10.0464052,12.3156452 10.035948,12.3276804 L7.81715204,14.8364949 C7.72800193,14.9402368 7.60878373,14.9988132 7.4843762,15 C7.28600231,15 7.10768039,14.8553937 7.03433733,14.6350452 C6.96099426,14.4146966 7.00745818,14.1631569 7.15160036,14.0002234 L9.37039634,11.489326 C9.75014973,11.0619469 10.341093,11.0560483 10.7267628,11.4757874 L12.4010957,13.3087112 C12.4118457,13.3208781 12.4286758,13.3208781 12.4394259,13.3087112 L15.1992004,10.140669 C15.3939831,9.93971659 15.6861974,9.9558892 15.8646165,10.1774965 Z" id="形状结合"></path>
            </g>
        </g>
    </g>
</svg>