<svg t="1676617096722" class="icon" viewBox="0 0 1024 1024" version="1.1" xmlns="http://www.w3.org/2000/svg" p-id="11487" width="64" height="64"><path d="M474.650145 624.817028c-7.162986 0-14.223643-2.762866-19.749376-8.18627l-98.030578-98.030578c-10.846807-10.846807-10.846807-28.549615 0-39.396423 10.846807-10.846807 28.549615-10.846807 39.396422 0l78.383532 78.383532 169.353452-169.353453c10.846807-10.846807 28.549615-10.846807 39.396423 0 10.846807 10.846807 10.846807 28.549615 0 39.396423L494.297192 616.630758c-5.423404 5.423404-12.484061 8.18627-19.647047 8.18627z" fill="currentColor" p-id="11488"></path><path d="M512 914.815629c-1.944239 0-3.990806-0.204657-5.935045-0.61397-4.40012-0.920955-108.468072-24.354152-198.005397-103.863296-49.219946-43.796542-81.453383-94.142101-99.872489-128.729089-15.144599-28.447287-23.126212-60.680723-23.126212-93.425802V292.659139c0-38.987109 29.982212-72.141501 69.583292-77.155591 27.730988-3.479165 69.07165-10.539822 108.979714-24.558809 72.448486-25.479764 129.445388-74.495053 130.059359-75.006696 10.437494-9.107225 26.093734-9.107225 36.531228 0 0.511642 0.511642 58.020186 49.62926 130.059358 75.006696 39.908064 14.018987 81.248726 21.079644 108.979715 24.558809 39.703408 4.911762 69.583292 38.066154 69.583291 77.155591v295.422004c0 32.64275-7.981613 64.978515-23.126211 93.425802-18.419107 34.586989-50.652543 85.034876-99.87249 128.72909C626.300789 889.745178 522.232837 913.178375 517.832717 914.09933c-1.841911 0.511642-3.78615 0.716299-5.832717 0.716299z m0-742.187669c-24.865794 18.623763-72.653143 50.8572-129.752373 71.015889-44.615169 15.656241-90.151294 23.535525-120.54282 27.321675-11.870091 1.432597-20.772659 10.846807-20.77266 21.795943v295.422005c0 23.637854 5.730389 46.866394 16.577196 67.229739 16.270211 30.493854 44.615169 75.006695 87.695414 113.175177 66.820426 59.350455 144.896972 83.704607 166.897571 89.639652 21.898271-5.935045 100.077146-30.186869 166.897572-89.639652 43.080244-38.27081 71.425202-82.681323 87.695413-113.175177 10.846807-20.363346 16.577196-43.694214 16.577196-67.229739V292.659139c0-10.949136-8.902568-20.261017-20.772659-21.795943-30.391526-3.78615-76.029979-11.563106-120.54282-27.321675-57.303887-20.056361-105.091236-52.289797-129.95703-70.913561z" fill="currentColor" p-id="11489"></path></svg>